HIERARCHY
ROOT Hips
{
	OFFSET 0.00000 0.00000 0.00000
	CHANNELS 6 Xposition Yposition Zposition Yrotation Zrotation Xrotation 
	JOINT Lumbar
	{
		OFFSET 0 0 0
		CHANNELS 3 Zrotation Xrotation Yrotation
		JOINT Neck
		{
			OFFSET 0.00 0.2701 0.00
			CHANNELS 3 Zrotation Xrotation Yrotation
			End Site
			{
				OFFSET 0.00 0.1379 0.00
			}
		}
		JOINT RightShoulder
		{
			OFFSET 0.0119 0.2289 0.1181
			CHANNELS 3 Zrotation Xrotation Yrotation
			JOINT RightElbow
			{
				OFFSET 0.00 -0.1475 0.00
				CHANNELS 2 Zrotation Yrotation
				JOINT RightWrist
				{
					OFFSET 0.00 -0.1605 0.00
					CHANNELS 2 Zrotation Xrotation
					End Site
					{
						OFFSET 0.0040 -0.1068 0.0006
					}
				}
			}
		}
		JOINT LeftShoulder
		{
			OFFSET 0.0119 0.2289 -0.1181
			CHANNELS 3 Zrotation Xrotation Yrotation
			JOINT LeftElbow
			{
				OFFSET 0.00 -0.1475 0.00
				CHANNELS 2 Zrotation Yrotation
				JOINT LeftWrist
				{
					OFFSET 0.00 -0.1605 0.00
					CHANNELS 2 Zrotation Xrotation
					End Site
					{
						OFFSET 0.0040 -0.1068 -0.0006
					}
				}
			}
		}
	}
	JOINT RightHip
	{
		OFFSET 0.0316 -0.0424 0.0458
		CHANNELS 3 Zrotation Xrotation Yrotation
		JOINT RightKnee
		{
			OFFSET 0.00 -0.2438 0.00
			CHANNELS 1 Zrotation
			JOINT RightAnkle
			{
				OFFSET 0.00 -0.2449 0.00
				CHANNELS 3 Zrotation Xrotation Yrotation
				End Site
				{
					OFFSET 0.1237 -0.0542 0.0051
				}
			}
		}
	}
	JOINT LeftHip
	{
		OFFSET 0.0316 -0.0424 -0.0458
		CHANNELS 3 Zrotation Xrotation Yrotation
		JOINT LeftKnee
		{
			OFFSET 0.00 -0.2438 0.00
			CHANNELS 1 Zrotation
			JOINT LeftAnkle
			{
				OFFSET 0.00 -0.2449 0.00
				CHANNELS 3 Zrotation Xrotation Yrotation
				End Site
				{
					OFFSET 0.1237 -0.0542 -0.0051
				}
			}
		}
	}
}
MOTION
Frames: 25
Frame Time: 0.02
0.00042 -1e-05 -0.00018 -181.29757 -40.83477 -3.38519 50.13947 2.96584 -0.71702 -14.89523 -1.43421 -1.72681 29.97837 -101.8904 55.63247 8.10473 87.79265 7.74137 -0.67702 4.88443 109.67209 -55.6144 9.06744 -83.37795 4.85349 2.09146 45.97287 -3.88016 -8.60714 -21.71084 -7.0023 -2.77088 -3.60531 49.5256 9.95226 4.488 -27.03385 -6.95755 2.18873 3.32143
0.00034 -1e-05 -0.00016 -181.22985 -40.58755 -3.35758 49.8996 2.94947 -0.75461 -14.91225 -1.44366 -1.7389 30.00679 -101.86679 55.63248 8.09855 87.79404 7.74516 -0.68182 4.83852 109.60318 -55.61419 9.06922 -83.37998 4.83815 2.09672 45.65151 -3.97607 -9.08209 -21.68903 -6.98851 -2.73179 -3.5854 49.23393 9.99543 4.72182 -27.01654 -6.95348 2.16211 3.30785
0.00025 -1e-05 -0.00014 -181.16243 -40.3414 -3.33008 49.66079 2.93317 -0.79205 -14.92921 -1.45308 -1.75094 30.0351 -101.84323 55.63248 8.0924 87.79543 7.74891 -0.6866 4.79274 109.5344 -55.61399 9.07103 -83.38202 4.82278 2.10194 45.3315 -4.0716 -9.55514 -21.66731 -6.97478 -2.69285 -3.56557 48.94349 10.03843 4.95477 -26.99931 -6.94942 2.13558 3.29433
0.00016 -1e-05 -0.00013 -181.09494 -40.095 -3.30255 49.42172 2.91685 -0.82952 -14.94618 -1.4625 -1.76299 30.06342 -101.81969 55.63248 8.08624 87.79682 7.75268 -0.69139 4.74697 109.4657 -55.61379 9.07281 -83.38405 4.80748 2.10718 45.0112 -4.1672 -10.02855 -21.64557 -6.96103 -2.65389 -3.54573 48.65278 10.08145 5.18784 -26.98206 -6.94537 2.10904 3.2808
8e-05 -1e-05 -0.00011 -181.02712 -39.84739 -3.2749 49.18145 2.90045 -0.86718 -14.9632 -1.47197 -1.77507 30.09188 -101.7961 55.63248 8.08005 87.79821 7.75651 -0.69619 4.70108 109.3969 -55.61358 9.07456 -83.38607 4.79224 2.11247 44.68937 -4.2632 -10.50403 -21.62373 -6.94723 -2.61476 -3.5258 48.36069 10.12466 5.42184 -26.96472 -6.94129 2.08239 3.26721
-1e-05 -1e-05 -0.0001 -180.96052 -39.60428 -3.2477 48.94568 2.88435 -0.90414 -14.98005 -1.48126 -1.78704 30.11988 -101.77263 55.63249 8.07398 87.79961 7.7601 -0.70093 4.65554 109.32818 -55.61337 9.07648 -83.38813 4.77659 2.11754 44.37318 -4.35774 -10.97196 -21.60227 -6.93364 -2.57623 -3.50617 48.0737 10.16722 5.65257 -26.94769 -6.93727 2.05611 3.25383
-9e-05 -1e-05 -8e-05 -180.89156 -39.35249 -3.21964 48.70122 2.86768 -0.94245 -14.99723 -1.49089 -1.79923 30.14873 -101.74894 55.63249 8.06768 87.80099 7.76415 -0.70579 4.60933 109.25937 -55.61318 9.07807 -83.39011 4.76177 2.12304 44.04611 -4.45511 -11.4545 -21.58008 -6.91965 -2.53654 -3.48596 47.77687 10.21103 5.88961 -26.93008 -6.93315 2.02913 3.24005
-0.00018 -1e-05 -7e-05 -180.82473 -39.10853 -3.19236 48.4646 2.85152 -0.97954 -15.01409 -1.50022 -1.81122 30.17686 -101.72545 55.63249 8.06158 87.80238 7.76779 -0.71053 4.56374 109.19065 -55.61297 9.07995 -83.39217 4.74622 2.12815 43.72887 -4.54989 -11.9237 -21.55855 -6.90602 -2.49791 -3.46629 47.48892 10.2537 6.12087 -26.91299 -6.92912 2.00279 3.22663
-0.00027 -1e-05 -5e-05 -180.76071 -38.87477 -3.16609 48.23821 2.83604 -1.01503 -15.03063 -1.50913 -1.82297 30.20388 -101.70221 55.63249 8.05578 87.80379 7.77087 -0.71515 4.51889 109.12195 -55.61274 9.08224 -83.39433 4.72962 2.13276 43.42441 -4.64145 -12.37617 -21.53787 -6.89284 -2.46062 -3.44727 47.21253 10.29496 6.34499 -26.89657 -6.92519 1.97723 3.21365
-0.00035 -1e-05 -4e-05 -180.68114 -38.58421 -3.13416 47.9549 2.81682 -1.05942 -15.04923 -1.52032 -1.83609 30.23659 -101.67753 55.63249 8.04843 87.80514 7.77699 -0.72054 4.46973 109.0529 -55.61264 9.08232 -83.39591 4.71857 2.14016 43.04868 -4.75136 -12.92364 -21.51243 -6.87709 -2.41574 -3.42447 46.87174 10.34426 6.60994 -26.87641 -6.92066 1.94718 3.19818
-0.00044 -1e-05 -2e-05 -180.63398 -38.41226 -3.11407 47.79043 2.80537 -1.08524 -15.06336 -1.52676 -1.84631 30.25774 -101.6559 55.6325 8.04423 87.80659 7.77685 -0.72428 4.42972 108.98475 -55.61226 9.08696 -83.39869 4.69616 2.14175 42.82185 -4.82268 -13.2715 -21.49693 -6.86675 -2.38681 -3.40966 46.66549 10.37664 6.78889 -26.86406 -6.91741 1.92661 3.18794
-0.00051 -1e-05 0 -180.67973 -38.57882 -3.12764 47.96533 2.8165 -1.05763 -15.06602 -1.51964 -1.84846 30.24324 -101.64278 55.63249 8.04976 87.80845 7.75798 -0.72344 4.4146 108.9175 -55.61104 9.10512 -83.40492 4.63936 2.1266 43.01957 -4.78596 -13.05924 -21.50989 -6.87152 -2.40242 -3.41707 46.84277 10.36187 6.72826 -26.87398 -6.91773 1.93231 3.19235
-0.00057 -1e-05 3e-05 -180.75725 -38.86191 -3.15287 48.25695 2.8352 -1.01182 -15.06406 -1.50784 -1.84771 30.21785 -101.6327 55.6325 8.05827 87.81038 7.73308 -0.72093 4.40874 108.85141 -55.60957 9.12767 -83.41232 4.57171 2.10572 43.36366 -4.71089 -12.64883 -21.53262 -6.88166 -2.4339 -3.43247 47.1523 10.33023 6.58189 -26.89157 -6.91932 1.94748 3.20197
-0.00064 -1e-05 5e-05 -180.81766 -39.08339 -3.17201 48.48671 2.84962 -0.97592 -15.06368 -1.49851 -1.84832 30.20002 -101.62116 55.6325 8.06474 87.81217 7.712 -0.7192 4.39875 108.78586 -55.60827 9.14752 -83.41907 4.51123 2.08804 43.63058 -4.65479 -12.33719 -21.55013 -6.88916 -2.45762 -3.44403 47.39216 10.30681 6.47715 -26.90509 -6.92029 1.95816 3.20902
-0.0007 -1e-05 8e-05 -180.8895 -39.3423 -3.19458 48.75461 2.86761 -0.93301 -15.06546 -1.48769 -1.8487 30.1712 -101.61 55.63248 8.07411 87.81438 7.68649 -0.7174 4.38832 108.71593 -55.60671 9.17034 -83.42629 4.44151 2.068 43.94355 -4.59212 -11.98838 -21.571 -6.89753 -2.48369 -3.45648 47.67343 10.28109 6.36116 -26.92113 -6.92146 1.96964 3.21692
-0.00077 -0 9e-05 -180.94494 -39.55002 -3.2127 48.9699 2.87994 -0.90045 -15.06169 -1.47892 -1.84892 30.16261 -101.59873 55.63252 8.07815 87.81577 7.6686 -0.71531 4.38118 108.65526 -55.60564 9.18804 -83.43286 4.38816 2.05133 44.19433 -4.53403 -11.66998 -21.58713 -6.90536 -2.50862 -3.46895 47.89886 10.25608 6.24803 -26.93369 -6.92251 1.98168 3.22428
-0.00082 -0 9e-05 -180.94836 -39.59529 -3.21618 49.01868 2.87487 -0.90047 -15.04343 -1.47639 -1.84907 30.21319 -101.58669 55.6328 8.06671 87.81457 7.67495 -0.71302 4.37932 108.62094 -55.60586 9.19023 -83.43693 4.38533 2.04683 44.24604 -4.49811 -11.48492 -21.58821 -6.91051 -2.52644 -3.47963 47.94608 10.23785 6.16637 -26.93517 -6.92292 1.99328 3.22889
-0.00087 -0 8e-05 -180.93408 -39.58408 -3.21471 49.00958 2.86383 -0.91156 -15.01981 -1.47614 -1.84923 30.28445 -101.57439 55.63315 8.04984 87.81259 7.68891 -0.71046 4.38072 108.5957 -55.60659 9.18718 -83.44038 4.39884 2.04566 44.22907 -4.46807 -11.33705 -21.58414 -6.91493 -2.54258 -3.49004 47.93148 10.22081 6.09018 -26.93284 -6.92317 2.00506 3.23277
-0.00092 -0 8e-05 -180.92705 -39.5932 -3.21511 49.02154 2.85541 -0.918 -14.99885 -1.47523 -1.84963 30.34571 -101.56201 55.63346 8.03548 87.81117 7.69825 -0.70788 4.38172 108.56559 -55.60723 9.18667 -83.44439 4.40316 2.04195 44.23722 -4.43532 -11.17184 -21.5821 -6.91963 -2.55951 -3.50048 47.939 10.20271 6.00971 -26.93194 -6.9235 2.01654 3.23695
-0.00097 -0 8e-05 -180.92396 -39.62692 -3.21733 49.05772 2.84755 -0.92249 -14.97674 -1.4727 -1.84894 30.40882 -101.55054 55.63381 8.02101 87.80891 7.71213 -0.70581 4.37863 108.53863 -55.60738 9.18557 -83.44726 4.41463 2.04224 44.27382 -4.40154 -11.0022 -21.58157 -6.92471 -2.57685 -3.51153 47.97414 10.18606 5.93345 -26.93245 -6.92384 2.02924 3.24143
-0.00101 -0 7e-05 -180.90867 -39.59695 -3.21467 49.03066 2.83714 -0.93355 -14.95584 -1.47402 -1.85051 30.47348 -101.53711 55.63408 8.00551 87.8082 7.71862 -0.70267 4.38452 108.50727 -55.60849 9.18447 -83.45233 4.41512 2.03522 44.23589 -4.37161 -10.85238 -21.57671 -6.92881 -2.5928 -3.52119 47.93813 10.16709 5.8513 -26.92918 -6.9241 2.03937 3.24506
-0.00104 -1e-05 5e-05 -180.85848 -39.38219 -3.19765 48.82049 2.81987 -0.96338 -14.9396 -1.48662 -1.85881 30.53445 -101.51813 55.63413 7.98779 87.81216 7.70122 -0.69625 4.41606 108.46138 -55.61309 9.18403 -83.4638 4.38217 2.00592 43.982 -4.35294 -10.75737 -21.55982 -6.92981 -2.60452 -3.52667 47.6953 10.13985 5.74785 -26.91499 -6.92415 2.04182 3.24629
-0.00107 -1e-05 3e-05 -180.79735 -39.10838 -3.17617 48.55175 2.80041 -0.999 -14.9248 -1.50283 -1.86932 30.59687 -101.49722 55.6341 7.96938 87.81768 7.67643 -0.68884 4.45625 108.41072 -55.61798 9.1839 -83.47745 4.33747 1.96938 43.65909 -4.33791 -10.68108 -21.53895 -6.9299 -2.6149 -3.53077 47.38647 10.11055 5.63932 -26.89733 -6.92412 2.04172 3.2467
-0.0011 -1e-05 2e-05 -180.74488 -38.87661 -3.1581 48.32478 2.78281 -1.02978 -14.90941 -1.51664 -1.87852 30.66059 -101.47735 55.63411 7.95168 87.82239 7.65613 -0.68212 4.49126 108.36243 -55.62269 9.18399 -83.49003 4.29765 1.93704 43.38556 -4.31985 -10.5902 -21.52079 -6.93079 -2.62646 -3.53581 47.12465 10.08336 5.53609 -26.88222 -6.92412 2.04312 3.24761
-0.00112 -1e-05 -0 -180.67683 -38.581 -3.13423 48.03415 2.76149 -1.06991 -14.89362 -1.53376 -1.88899 30.71674 -101.45684 55.63413 7.93198 87.82751 7.63134 -0.67432 4.53137 108.31383 -55.62955 9.18225 -83.50301 4.26039 1.90105 43.03642 -4.30715 -10.52297 -21.49876 -6.93016 -2.63588 -3.53968 46.79141 10.05145 5.42073 -26.86301 -6.92413 2.04314 3.24798
